<?xml version="1.0" encoding="UTF-8"?>
<svg xmlns="http://www.w3.org/2000/svg" xmlns:xlink="http://www.w3.org/1999/xlink" width="64pt" height="64pt" viewBox="0 0 64 64" version="1.1">
<g id="surface1">
<path style=" stroke:none;fill-rule:nonzero;fill:#5B5B5B;fill-opacity:1;" d="M 32 8 C 18.765625 8 8 18.765625 8 32 C 8 45.234375 18.765625 56 32 56 C 40.101563 56 47.28125 51.976563 51.625 45.8125 L 48.375 43.5 C 44.757813 48.640625 38.78125 52 32 52 C 20.929688 52 12 43.070313 12 32 C 12 20.929688 20.929688 12 32 12 C 38.78125 12 44.75 15.359375 48.375 20.5 L 51.625 18.1875 C 47.28125 12.023438 40.101563 8 32 8 Z M 46.6875 22.5625 L 43.8125 25.4375 L 48.375 30 L 24 30 L 24 34 L 48.375 34 L 43.8125 38.5625 L 46.6875 41.4375 L 54.6875 33.4375 L 56.0625 32 L 54.6875 30.5625 Z "/>
</g>
</svg>
